# Made in Blockbench 4.10.4
mtllib ceramic_mixer_stirrer.mtl

o cube
v 0.36192168318361273 1.1232782069268834 0.5625
v 0.36192168318361273 1.1232782069268834 0.4375
v 0.6207407282861337 0.1573523806378151 0.5625
v 0.6207407282861337 0.1573523806378151 0.4375
v 0.24118095489747926 1.0909258262890682 0.4375
v 0.24118095489747926 1.0909258262890682 0.5625
v 0.5 0.125 0.4375
v 0.5 0.125 0.5625
vt 0.0625 1
vt 0.1875 1
vt 0.1875 0
vt 0.0625 0
vt 0 1
vt 0.125 1
vt 0.125 0
vt 0 0
vt 0.75 1
vt 0.875 1
vt 0.875 0
vt 0.75 0
vt 0.25 1
vt 0.375 1
vt 0.375 0
vt 0.25 0
vt 0.0625 0.875
vt 0.1875 0.875
vt 0.1875 0.75
vt 0.0625 0.75
vt 0.0625 0.8125
vt 0.1875 0.8125
vt 0.1875 0.6875
vt 0.0625 0.6875
vn 0 0 -1
vn 0.9659258262890683 0.25881904510252074 0
vn 0 0 1
vn -0.9659258262890683 -0.25881904510252074 0
vn -0.25881904510252074 0.9659258262890683 0
vn 0.25881904510252074 -0.9659258262890683 0
usemtl m_4b581da6-b4b5-b590-fb5d-7239871ad6f7
f 4/4/1 7/3/1 5/2/1 2/1/1
f 3/8/2 4/7/2 2/6/2 1/5/2
f 8/12/3 3/11/3 1/10/3 6/9/3
f 7/16/4 8/15/4 6/14/4 5/13/4
f 6/20/5 1/19/5 2/18/5 5/17/5
f 7/24/6 4/23/6 3/22/6 8/21/6