# Made in Blockbench 4.10.4
mtllib rotary_kiln_segment.mtl

o outerRing
v 1.375 0.1375631329235419 1
v 1.375 0.8624368670764581 -1.1102230246251565e-16
v 1.375 0.8624368670764583 0.9999999999999998
v 0.8624368670764584 1.375 0.9999999999999998
v 0.13756313292354183 1.375 -2.220446049250313e-16
v 0.13756313292354183 1.375 0.9999999999999998
v -0.3749999999999998 0.8624368670764588 0.9999999999999998
v -0.375 0.13756313292354172 1
v 1.375 0.13756313292354166 0
v 0.8624368670764582 -0.375 1.1102230246251565e-16
v 0.8624368670764582 -0.375 1.1102230246251565e-16
v 1.375 0.13756313292354166 0
v 1.375 0.13756313292354166 0
v 1.375 0.1375631329235419 1
v 1.375 0.1375631329235419 1
v 0.8624368670764582 -0.3749999999999998 1
v 0.8624368670764582 -0.3749999999999998 1
v 0.8624368670764582 -0.375 1.1102230246251565e-16
v 1.375 0.1375631329235419 1
v 0.8624368670764582 -0.3749999999999998 1
v 1.375 0.8624368670764581 -1.1102230246251565e-16
v 1.375 0.13756313292354166 0
v 1.375 0.8624368670764581 -1.1102230246251565e-16
v 1.375 0.8624368670764583 0.9999999999999998
v 1.375 0.8624368670764583 0.9999999999999998
v 0.8624368670764584 1.375 -2.220446049250313e-16
v 1.375 0.8624368670764581 -1.1102230246251565e-16
v 0.8624368670764584 1.375 -2.220446049250313e-16
v 0.8624368670764584 1.375 -2.220446049250313e-16
v 0.8624368670764584 1.375 0.9999999999999998
v 0.8624368670764584 1.375 0.9999999999999998
v 1.375 0.8624368670764583 0.9999999999999998
v 0.8624368670764584 1.375 0.9999999999999998
v 0.13756313292354183 1.375 -2.220446049250313e-16
v 0.8624368670764584 1.375 -2.220446049250313e-16
v 0.13756313292354183 1.375 -2.220446049250313e-16
v 0.13756313292354183 1.375 0.9999999999999998
v 0.13756313292354183 1.375 0.9999999999999998
v -0.3749999999999998 0.8624368670764586 -1.1102230246251565e-16
v 0.13756313292354183 1.375 -2.220446049250313e-16
v -0.3749999999999998 0.8624368670764586 -1.1102230246251565e-16
v -0.3749999999999998 0.8624368670764586 -1.1102230246251565e-16
v -0.3749999999999998 0.8624368670764588 0.9999999999999998
v -0.3749999999999998 0.8624368670764588 0.9999999999999998
v 0.13756313292354183 1.375 0.9999999999999998
v -0.3749999999999998 0.8624368670764588 0.9999999999999998
v -0.375 0.1375631329235415 0
v -0.3749999999999998 0.8624368670764586 -1.1102230246251565e-16
v -0.375 0.1375631329235415 0
v -0.375 0.13756313292354172 1
v -0.375 0.13756313292354172 1
v 0.13756313292354116 -0.3749999999999999 1.1102230246251565e-16
v -0.375 0.1375631329235415 0
v 0.13756313292354116 -0.3749999999999999 1.1102230246251565e-16
v 0.13756313292354116 -0.3749999999999999 1.1102230246251565e-16
v 0.13756313292354116 -0.37499999999999967 1
v 0.13756313292354116 -0.37499999999999967 1
v -0.375 0.13756313292354172 1
v 0.13756313292354116 -0.37499999999999967 1
v 0.8624368670764582 -0.375 1.1102230246251565e-16
v 0.13756313292354116 -0.3749999999999999 1.1102230246251565e-16
v 0.9142135623730951 -0.5000000000000001 1.1102230246251565e-16
v 0.08578643762690508 1.5 -3.3306690738754696e-16
v 1.5 0.08578643762690474 0
v 0.9142135623730951 -0.5000000000000001 1.1102230246251565e-16
v 0.9142135623730951 -0.5000000000000001 1.1102230246251565e-16
v 1.5 0.08578643762690474 0
v 1.5 0.08578643762690474 0
v 1.5 0.9142135623730949 -2.220446049250313e-16
v 1.5 0.08578643762690474 0
v 1.5 0.9142135623730949 -2.220446049250313e-16
v 1.5 0.9142135623730949 -2.220446049250313e-16
v 0.9142135623730951 1.5 -3.3306690738754696e-16
v 1.5 0.9142135623730949 -2.220446049250313e-16
v 0.9142135623730951 1.5 -3.3306690738754696e-16
v 0.9142135623730951 1.5 -3.3306690738754696e-16
v 0.9142135623730951 1.5 0.9999999999999997
v 0.08578643762690508 1.5 -3.3306690738754696e-16
v 0.9142135623730951 1.5 -3.3306690738754696e-16
v 0.08578643762690508 1.5 -3.3306690738754696e-16
v 0.08578643762690508 1.5000000000000004 0.9999999999999997
v -0.4999999999999998 0.9142135623730956 -2.220446049250313e-16
v 0.08578643762690508 1.5 -3.3306690738754696e-16
v -0.4999999999999998 0.9142135623730956 -2.220446049250313e-16
v 0.08578643762690508 1.5000000000000004 0.9999999999999997
v -0.4999999999999998 0.9142135623730956 -2.220446049250313e-16
v -0.5 0.0857864376269048 1
v -0.4999999999999998 0.9142135623730958 0.9999999999999998
v -0.5 0.0857864376269048 1
v 0.08578643762690419 -0.4999999999999999 1.1102230246251565e-16
v 0.9142135623730951 -0.5000000000000001 1.1102230246251565e-16
v 0.08578643762690419 -0.4999999999999999 1.1102230246251565e-16
v 0.08578643762690419 -0.4999999999999999 1.1102230246251565e-16
v 0.08578643762690419 -0.49999999999999967 1
v -0.5 0.0857864376269048 1
v -0.5 0.08578643762690458 0
v 0.9142135623730951 1.5 0.9999999999999997
v 1.5 0.9142135623730951 0.9999999999999998
v 0.9142135623730951 1.5 0.9999999999999997
v 0.9142135623730951 -0.4999999999999999 1
v 1.5 0.9142135623730951 0.9999999999999998
v 0.9142135623730951 1.5 0.9999999999999997
v 1.5 0.08578643762690474 0
v 1.5 0.9142135623730949 -2.220446049250313e-16
v 0.9142135623730951 1.5 -3.3306690738754696e-16
v -0.4999999999999998 0.9142135623730956 -2.220446049250313e-16
v 0.08578643762690419 -0.4999999999999999 1.1102230246251565e-16
v 0.08578643762690419 -0.49999999999999967 1
v 0.9142135623730951 -0.5000000000000001 1.1102230246251565e-16
v 1.5 0.9142135623730951 0.9999999999999998
v 1.5 0.9142135623730951 0.9999999999999998
v 0.08578643762690508 1.5 -3.3306690738754696e-16
v 0.08578643762690508 1.5000000000000004 0.9999999999999997
v 0.9142135623730951 1.5 0.9999999999999997
v -0.4999999999999998 0.9142135623730956 -2.220446049250313e-16
v -0.4999999999999998 0.9142135623730958 0.9999999999999998
v -0.5 0.0857864376269048 1
v 0.08578643762690419 -0.4999999999999999 1.1102230246251565e-16
v 0.08578643762690419 -0.49999999999999967 1
v -0.4999999999999998 0.9142135623730958 0.9999999999999998
v -0.4999999999999998 0.9142135623730958 0.9999999999999998
v 0.08578643762690508 1.5000000000000004 0.9999999999999997
v 0.08578643762690419 -0.49999999999999967 1
v 1.5 0.9142135623730951 0.9999999999999998
v 1.5 0.08578643762690497 1
v -0.4999999999999998 0.9142135623730958 0.9999999999999998
vt 0.0625 0.8125
vt 0.1640625 0.8125
vt 0.1640625 0.9375
vt 0.0625 0.9375
vt 0.265625 0.875
vt 0.3671875 0.875
vt 0.3671875 1
vt 0.265625 1
vt 0 0.609375
vt 0.1015625 0.609375
vt 0.1015625 0.734375
vt 0 0.734375
vt 0.2578125 0.6171875
vt 0.359375 0.6171875
vt 0.359375 0.7421875
vt 0.2578125 0.7421875
vt 0.4765625 0.875
vt 0.4765625 1
vt 0.375 1
vt 0.375 0.875
vt 0.421875 0.5703125
vt 0.421875 0.4453125
vt 0.5234375 0.4453125
vt 0.5234375 0.5703125
vt 0.1015625 0.6015625
vt 0 0.6015625
vt 0 0.4765625
vt 0.1015625 0.4765625
vt 0.109375 0.4609375
vt 0.2109375 0.4609375
vt 0.2109375 0.5859375
vt 0.109375 0.5859375
vn 1 0 0
vn 2.6803154833089315e-16 1 -2.220446049250313e-16
vn -2.680315483308929e-16 -1 2.220446049250313e-16
vn -1 2.680315483308929e-16 -5.951495925657755e-32
vn 0.7071067811865476 0.7071067811865475 -1.570092458683775e-16
vn -0.7071067811865474 0.7071067811865477 -1.5700924586837754e-16
vn 0.7071067811865476 -0.7071067811865476 1.5700924586837752e-16
vn -0.7071067811865477 -0.7071067811865474 1.5700924586837747e-16
usemtl m_5d1b49fd-6145-ce2e-3b7f-01bfdf9116f6
f 103/1/1 72/2/1 124/3/1 125/4/1
f 105/5/2 112/6/2 113/7/2 114/8/2
f 107/9/3 62/10/3 100/11/3 119/12/3
f 106/13/4 96/14/4 117/15/4 88/16/4
f 73/17/5 77/18/5 98/19/5 69/20/5
f 81/21/6 63/22/6 82/23/6 88/24/6
f 125/25/7 100/26/7 62/27/7 64/28/7
f 96/29/8 90/30/8 94/31/8 87/32/8
o shaftJoint
v -0.20710678118654802 1.1196383476483145 0.5625
v -0.20710678118654802 1.1196383476483145 0.4375
v -0.11871843353823008 1.2080266952966334 0.5625
v -0.11871843353823008 1.2080266952966334 0.4375
v 0.3232233047033656 0.5893082617584068 0.5625
v 0.3232233047033656 0.5893082617584068 0.4375
v 0.4116116523516835 0.6776966094067257 0.5625
v 0.4116116523516835 0.6776966094067257 0.4375
v 1.1187184335382296 1.2080266952966348 0.5625
v 1.1187184335382296 1.2080266952966348 0.4375
v 1.207106781186548 1.119638347648316 0.5625
v 1.207106781186548 1.119638347648316 0.4375
v 0.5883883476483174 0.6776966094067259 0.5625
v 0.5883883476483174 0.6776966094067259 0.4375
v 0.6767766952966354 0.5893082617584072 0.5625
v 0.6767766952966354 0.5893082617584072 0.4375
v 1.2071067811865475 -0.11963834764831849 0.5625
v 1.2071067811865475 -0.11963834764831849 0.4375
v 1.1187184335382292 -0.20802669529663698 0.5625
v 1.1187184335382292 -0.20802669529663698 0.4375
v 0.676776695296637 0.4106917382415922 0.5625
v 0.676776695296637 0.4106917382415922 0.4375
v 0.5883883476483185 0.32230339059327373 0.5625
v 0.5883883476483185 0.32230339059327373 0.4375
v -0.11871843353822897 -0.20802669529663698 0.5625
v -0.11871843353822897 -0.20802669529663698 0.4375
v -0.20710678118654746 -0.11963834764831849 0.5625
v -0.20710678118654746 -0.11963834764831849 0.4375
v 0.4116116523516815 0.32230339059327373 0.5625
v 0.4116116523516815 0.32230339059327373 0.4375
v 0.323223304703363 0.4106917382415921 0.5625
v 0.323223304703363 0.4106917382415921 0.4375
v 0.6875 0.3125 0.625
v 0.6875 0.3125 0.375
v 0.3125 0.3125 0.625
v 0.3125 0.3125 0.375
v 0.6874999999999999 0.6875 0.625
v 0.6874999999999999 0.6875 0.375
v 0.31249999999999983 0.6874999999999999 0.625
v 0.31249999999999983 0.6874999999999999 0.375
vt 0.90625 0.15625
vt 0.84375 0.15625
vt 0.84375 0.09375
vt 0.90625 0.09375
vt 0.375 0.03125
vt 0.375 0.09375
vt 0.3125 0.09375
vt 0.3125 0.03125
vt 0.21875 0.9375
vt 0.59375 0.9375
vt 0.59375 1
vt 0.21875 1
vt 0.59375 0.9375
vt 0.59375 1
vt 0.21875 1
vt 0.21875 0.9375
vt 0.59375 0.9375
vt 0.59375 1
vt 0.21875 1
vt 0.21875 0.9375
vt 0.59375 1
vt 0.21875 1
vt 0.21875 0.9375
vt 0.59375 0.9375
vt 0.8125 0.25
vt 0.75 0.25
vt 0.75 0.1875
vt 0.8125 0.1875
vt 0.875 0.46875
vt 0.875 0.53125
vt 0.8125 0.53125
vt 0.8125 0.46875
vt 0.21875 0.9375
vt 0.59375 0.9375
vt 0.59375 1
vt 0.21875 1
vt 0.59375 0.9375
vt 0.59375 1
vt 0.21875 1
vt 0.21875 0.9375
vt 0.59375 0.9375
vt 0.59375 1
vt 0.21875 1
vt 0.21875 0.9375
vt 0.59375 1
vt 0.21875 1
vt 0.21875 0.9375
vt 0.59375 0.9375
vt 0.875 0.4375
vt 0.8125 0.4375
vt 0.8125 0.375
vt 0.875 0.375
vt 0.875 0.28125
vt 0.875 0.34375
vt 0.8125 0.34375
vt 0.8125 0.28125
vt 0.21875 0.9375
vt 0.59375 0.9375
vt 0.59375 1
vt 0.21875 1
vt 0.59375 0.9375
vt 0.59375 1
vt 0.21875 1
vt 0.21875 0.9375
vt 0.59375 0.9375
vt 0.59375 1
vt 0.21875 1
vt 0.21875 0.9375
vt 0.59375 1
vt 0.21875 1
vt 0.21875 0.9375
vt 0.59375 0.9375
vt 0.8125 0.15625
vt 0.75 0.15625
vt 0.75 0.09375
vt 0.8125 0.09375
vt 0.90625 0.1875
vt 0.90625 0.25
vt 0.84375 0.25
vt 0.84375 0.1875
vt 0.21875 0.9375
vt 0.59375 0.9375
vt 0.59375 1
vt 0.21875 1
vt 0.59375 0.9375
vt 0.59375 1
vt 0.21875 1
vt 0.21875 0.9375
vt 0.59375 0.9375
vt 0.59375 1
vt 0.21875 1
vt 0.21875 0.9375
vt 0.59375 1
vt 0.21875 1
vt 0.21875 0.9375
vt 0.59375 0.9375
vt 0.125 0.25
vt 0 0.25
vt 0 0.0625
vt 0.125 0.0625
vt 0.28125 0.0625
vt 0.28125 0.25
vt 0.15625 0.25
vt 0.15625 0.0625
vt 0.3125 0.125
vt 0.5 0.125
vt 0.5 0.25
vt 0.3125 0.25
vt 0.71875 0.125
vt 0.71875 0.25
vt 0.53125 0.25
vt 0.53125 0.125
vt 0.1875 0.8125
vt 0.1875 1
vt 0 1
vt 0 0.8125
vt 0.1875 0.78125
vt 0 0.78125
vt 0 0.59375
vt 0.1875 0.59375
vn -0.7071067811865515 0.7071067811865436 0
vn 0.7071067811865515 -0.7071067811865436 0
vn -0.7071067811865436 -0.7071067811865515 0
vn 0.7071067811865436 0.7071067811865515 0
vn 0 0 1
vn 0 0 -1
vn 0.7071067811865499 0.7071067811865451 0
vn -0.7071067811865499 -0.7071067811865451 0
vn -0.7071067811865451 0.7071067811865499 0
vn 0.707106781186545 -0.70710678118655 0
vn 0 0 1
vn 0 0 -1
vn 0.7071067811865477 -0.7071067811865474 0
vn -0.7071067811865477 0.7071067811865474 0
vn 0.7071067811865476 0.7071067811865475 0
vn -0.7071067811865476 -0.7071067811865475 0
vn 0 0 1
vn 0 0 -1
vn -0.7071067811865474 -0.7071067811865477 0
vn 0.7071067811865474 0.7071067811865477 0
vn 0.7071067811865476 -0.7071067811865475 0
vn -0.7071067811865477 0.7071067811865474 0
vn 0 0 1
vn 0 0 -1
vn 3.885780586188048e-16 -1 0
vn -2.220446049250313e-16 1 0
vn 1 2.220446049250313e-16 0
vn -1 -3.885780586188048e-16 0
vn 0 0 1
vn 0 0 -1
usemtl m_03e40fcd-3eed-aa14-a688-906c59551a3c
f 128/33/9 127/34/9 129/35/9 130/36/9
f 133/37/10 131/38/10 132/39/10 134/40/10
f 131/41/11 127/42/11 128/43/11 132/44/11
f 130/45/12 129/46/12 133/47/12 134/48/12
f 129/49/13 127/50/13 131/51/13 133/52/13
f 132/53/14 128/54/14 130/55/14 134/56/14
f 136/57/15 135/58/15 137/59/15 138/60/15
f 141/61/16 139/62/16 140/63/16 142/64/16
f 139/65/17 135/66/17 136/67/17 140/68/17
f 138/69/18 137/70/18 141/71/18 142/72/18
f 137/73/19 135/74/19 139/75/19 141/76/19
f 140/77/20 136/78/20 138/79/20 142/80/20
f 144/81/21 143/82/21 145/83/21 146/84/21
f 149/85/22 147/86/22 148/87/22 150/88/22
f 147/89/23 143/90/23 144/91/23 148/92/23
f 146/93/24 145/94/24 149/95/24 150/96/24
f 145/97/25 143/98/25 147/99/25 149/100/25
f 148/101/26 144/102/26 146/103/26 150/104/26
f 152/105/27 151/106/27 153/107/27 154/108/27
f 157/109/28 155/110/28 156/111/28 158/112/28
f 155/113/29 151/114/29 152/115/29 156/116/29
f 154/117/30 153/118/30 157/119/30 158/120/30
f 153/121/31 151/122/31 155/123/31 157/124/31
f 156/125/32 152/126/32 154/127/32 158/128/32
f 160/129/33 159/130/33 161/131/33 162/132/33
f 165/133/34 163/134/34 164/135/34 166/136/34
f 163/137/35 159/138/35 160/139/35 164/140/35
f 162/141/36 161/142/36 165/143/36 166/144/36
f 161/145/37 159/146/37 163/147/37 165/148/37
f 164/149/38 160/150/38 162/151/38 166/152/38
o southSide
v 0.8624368670764582 -0.3749999999999998 1
v 1.375 0.1375631329235419 1
v 1.375 0.8624368670764583 0.9999999999999998
v 0.8624368670764584 1.375 0.9999999999999998
v 0.13756313292354183 1.375 0.9999999999999998
v -0.3749999999999998 0.8624368670764588 0.9999999999999998
v -0.375 0.13756313292354172 1
v 0.13756313292354116 -0.37499999999999967 1
v 0.9142135623730951 1.5 0.9999999999999997
v 0.08578643762690508 1.5000000000000004 0.9999999999999997
v -0.5 0.0857864376269048 1
v -0.4999999999999998 0.9142135623730958 0.9999999999999998
v 0.08578643762690419 -0.49999999999999967 1
v 1.5 0.9142135623730951 0.9999999999999998
v 0.9142135623730951 -0.4999999999999999 1
v 1.5 0.08578643762690497 1
vt 0.43359375 0.7132734375
vt 0.44921875 0.7197453125
vt 0.37599531250000007 0.79296875
vt 0.36952343750000005 0.77734375
vt 0.43359375 0.7132734375
vt 0.43359375 0.6226640625
vt 0.44921875 0.6161921875
vt 0.44921875 0.7197453125
vt 0.37599531249999996 0.54296875
vt 0.44921875 0.6161921875
vt 0.43359375 0.6226640625
vt 0.3695234375 0.55859375
vt 0.37599531249999996 0.54296875
vt 0.3695234375 0.55859375
vt 0.27891406249999995 0.55859375
vt 0.2724421875 0.54296875
vt 0.19921874999999997 0.6161921875
vt 0.27244218749999993 0.54296875
vt 0.27891406249999995 0.55859375
vt 0.21484374999999997 0.6226640625
vt 0.19921874999999997 0.6161921875
vt 0.21484375 0.6226640625
vt 0.21484375000000003 0.7132734375
vt 0.19921875000000003 0.7197453125
vt 0.2724421875 0.79296875
vt 0.19921875000000003 0.7197453125
vt 0.21484375000000003 0.7132734375
vt 0.27891406250000006 0.77734375
vt 0.37599531250000007 0.79296875
vt 0.2724421875 0.79296875
vt 0.2789140625 0.77734375
vt 0.36952343750000005 0.77734375
vn 0 2.220446049250313e-16 1
vn 0 2.220446049250313e-16 1
vn 0 2.220446049250313e-16 1
vn 0 2.220446049250313e-16 1
vn 0 2.220446049250313e-16 1
vn 0 2.220446049250313e-16 1
vn 0 2.220446049250313e-16 1
vn 0 2.220446049250313e-16 1
usemtl m_5d1b49fd-6145-ce2e-3b7f-01bfdf9116f6
f 169/153/39 180/154/39 175/155/39 170/156/39
f 169/157/40 168/158/40 182/159/40 180/160/40
f 181/161/41 182/162/41 168/163/41 167/164/41
f 181/165/42 167/166/42 174/167/42 179/168/42
f 177/169/43 179/170/43 174/171/43 173/172/43
f 177/173/44 173/174/44 172/175/44 178/176/44
f 176/177/45 178/178/45 172/179/45 171/180/45
f 175/181/46 176/182/46 171/183/46 170/184/46
o northSide
v 0.8624368670764582 -0.375 1.1102230246251565e-16
v 1.375 0.13756313292354166 0
v 1.375 0.8624368670764581 -1.1102230246251565e-16
v 0.8624368670764584 1.375 -2.220446049250313e-16
v 0.13756313292354183 1.375 -2.220446049250313e-16
v -0.3749999999999998 0.8624368670764586 -1.1102230246251565e-16
v -0.375 0.1375631329235415 0
v 0.13756313292354116 -0.3749999999999999 1.1102230246251565e-16
v 0.9142135623730951 1.5 -3.3306690738754696e-16
v 0.08578643762690508 1.5 -3.3306690738754696e-16
v -0.5 0.08578643762690458 0
v -0.4999999999999998 0.9142135623730956 -2.220446049250313e-16
v 0.08578643762690419 -0.4999999999999999 1.1102230246251565e-16
v 1.5 0.9142135623730949 -2.220446049250313e-16
v 0.9142135623730951 -0.5000000000000001 1.1102230246251565e-16
v 1.5 0.08578643762690474 0
vt 0.18068281250000004 0.73828125
vt 0.25390625 0.8115046875
vt 0.23828125000000003 0.8179765625
vt 0.17421093750000002 0.75390625
vt 0.25390625 0.9150578125
vt 0.23828125000000003 0.9085859374999999
vt 0.23828125000000003 0.8179765625
vt 0.25390625 0.8115046875
vt 0.23828125000000003 0.9085859374999999
vt 0.25390625 0.9150578125
vt 0.18068281250000004 0.98828125
vt 0.17421093750000002 0.97265625
vt 0.0836015625 0.9726562500000001
vt 0.17421093750000002 0.97265625
vt 0.18068281250000004 0.98828125
vt 0.07712968750000004 0.9882812500000001
vt 0.08360156250000002 0.97265625
vt 0.07712968750000002 0.98828125
vt 0.0039062499999999722 0.9150578125
vt 0.019531249999999986 0.9085859374999999
vt 0.019531250000000028 0.8179765625
vt 0.019531249999999986 0.9085859374999999
vt 0.0039062499999999722 0.9150578125
vt 0.003906250000000028 0.8115046875
vt 0.019531250000000028 0.8179765625
vt 0.003906250000000028 0.8115046875
vt 0.07712968750000002 0.73828125
vt 0.08360156250000002 0.75390625
vt 0.08360156250000002 0.75390625
vt 0.07712968750000003 0.73828125
vt 0.18068281250000004 0.73828125
vt 0.17421093750000002 0.75390625
vn 0 -2.220446049250313e-16 -1
vn 0 -2.220446049250313e-16 -1
vn 0 -2.220446049250313e-16 -1
vn 0 -2.220446049250313e-16 -1
vn 0 -2.220446049250313e-16 -1
vn 0 -2.220446049250313e-16 -1
vn 0 -2.220446049250313e-16 -1
vn 0 -2.220446049250313e-16 -1
usemtl m_5d1b49fd-6145-ce2e-3b7f-01bfdf9116f6
f 191/185/47 196/186/47 185/187/47 186/188/47
f 198/189/48 184/190/48 185/191/48 196/192/48
f 184/193/49 198/194/49 197/195/49 183/196/49
f 190/197/50 183/198/50 197/199/50 195/200/50
f 190/201/51 195/202/51 193/203/51 189/204/51
f 188/205/52 189/206/52 193/207/52 194/208/52
f 188/209/53 194/210/53 192/211/53 187/212/53
f 187/213/54 192/214/54 191/215/54 186/216/54
o innerRing
v 1.375 0.8624368670764581 -1.1102230246251565e-16
v 1.375 0.8624368670764583 0.9999999999999998
v 0.8624368670764584 1.375 -2.220446049250313e-16
v 0.8624368670764584 1.375 0.9999999999999998
v 0.8624368670764584 1.375 -2.220446049250313e-16
v 0.13756313292354183 1.375 -2.220446049250313e-16
v 0.13756313292354183 1.375 0.9999999999999998
v 0.8624368670764584 1.375 0.9999999999999998
v 0.13756313292354183 1.375 -2.220446049250313e-16
v 0.13756313292354183 1.375 0.9999999999999998
v -0.3749999999999998 0.8624368670764586 -1.1102230246251565e-16
v -0.3749999999999998 0.8624368670764588 0.9999999999999998
v -0.3749999999999998 0.8624368670764586 -1.1102230246251565e-16
v -0.375 0.1375631329235415 5.551115123125783e-17
v -0.375 0.13756313292354172 1
v -0.3749999999999998 0.8624368670764588 0.9999999999999998
v -0.375 0.1375631329235415 5.551115123125783e-17
v -0.375 0.13756313292354172 1
v 0.13756313292354116 -0.3749999999999999 1.6653345369377348e-16
v 0.13756313292354116 -0.37499999999999967 1
v 0.8624368670764582 -0.375 1.1102230246251565e-16
v 0.13756313292354116 -0.3749999999999999 1.6653345369377348e-16
v 0.8624368670764582 -0.3749999999999998 1
v 0.13756313292354116 -0.37499999999999967 1
v 0.8624368670764582 -0.375 1.1102230246251565e-16
v 0.8624368670764582 -0.3749999999999998 1
v 1.375 0.13756313292354166 5.551115123125783e-17
v 1.375 0.1375631329235419 1
v 1.375 0.13756313292354166 5.551115123125783e-17
v 1.375 0.8624368670764581 -1.1102230246251565e-16
v 1.375 0.8624368670764583 0.9999999999999998
v 1.375 0.1375631329235419 1
vt 0 0.46875
vt 0 0.34375
vt 0.09375 0.34375
vt 0.09375 0.46875
vt 0.28125 0.4140625
vt 0.375 0.4140625
vt 0.375 0.5390625
vt 0.28125 0.5390625
vt 0.53125 0.34375
vt 0.625 0.34375
vt 0.625 0.46875
vt 0.53125 0.46875
vt 0.484375 0.875
vt 0.578125 0.875
vt 0.578125 1
vt 0.484375 1
vt 0.625 0.4765625
vt 0.625 0.6015625
vt 0.53125 0.6015625
vt 0.53125 0.4765625
vt 0.4609375 0.609375
vt 0.5546875 0.609375
vt 0.5546875 0.734375
vt 0.4609375 0.734375
vt 0.1953125 0.328125
vt 0.1953125 0.453125
vt 0.1015625 0.453125
vt 0.1015625 0.328125
vt 0.453125 0.7421875
vt 0.546875 0.7421875
vt 0.546875 0.8671875
vt 0.453125 0.8671875
vn -0.7071067811865477 -0.7071067811865474 1.5700924586837747e-16
vn 0 1 -2.220446049250313e-16
vn 0.7071067811865474 -0.7071067811865478 1.5700924586837757e-16
vn -1 3.063217695210204e-16 -6.801709629323147e-32
vn -0.7071067811865477 -0.7071067811865475 1.570092458683775e-16
vn -1.5316088476051023e-16 -1 2.220446049250313e-16
vn -0.7071067811865474 0.7071067811865477 -1.5700924586837754e-16
vn 1 0 0
usemtl m_5d1b49fd-6145-ce2e-3b7f-01bfdf9116f6
f 202/217/55 201/218/55 199/219/55 200/220/55
f 203/221/56 204/222/56 205/223/56 206/224/56
f 209/225/57 207/226/57 208/227/57 210/228/57
f 211/229/58 212/230/58 213/231/58 214/232/58
f 217/233/59 218/234/59 216/235/59 215/236/59
f 220/237/60 219/238/60 221/239/60 222/240/60
f 223/241/61 224/242/61 226/243/61 225/244/61
f 227/245/62 228/246/62 229/247/62 230/248/62
o Axis
v 0.625 0.625 1
v 0.625 0.625 0
v 0.625 0.375 1
v 0.625 0.375 0
v 0.375 0.625 0
v 0.375 0.625 1
v 0.375 0.375 0
v 0.375 0.375 1
vt 0.375 0.625
vt 0.625 0.625
vt 0.625 0.375
vt 0.375 0.375
vt 0.375 0
vt 0.375 1
vt 0.625 1
vt 0.625 0
vt 0.375 0.625
vt 0.625 0.625
vt 0.625 0.375
vt 0.375 0.375
vt 0.375 0
vt 0.375 1
vt 0.625 1
vt 0.625 0
vt 0.375 1
vt 0.625 1
vt 0.625 0
vt 0.375 0
vt 0.375 1
vt 0.625 1
vt 0.625 0
vt 0.375 0
vn 0 0 -1
vn 1 0 0
vn 0 0 1
vn -1 0 0
vn 0 1 0
vn 0 -1 0
usemtl m_d2a4896a-d2ed-8d7c-45e0-d2b2fc58eb86
f 234/252/63 237/251/63 235/250/63 232/249/63
usemtl m_ec418a5c-a576-9a1a-d39a-3bdf486aa705
f 233/256/64 234/255/64 232/254/64 231/253/64
usemtl m_d2a4896a-d2ed-8d7c-45e0-d2b2fc58eb86
f 238/260/65 233/259/65 231/258/65 236/257/65
usemtl m_ec418a5c-a576-9a1a-d39a-3bdf486aa705
f 237/264/66 238/263/66 236/262/66 235/261/66
f 236/268/67 231/267/67 232/266/67 235/265/67
f 237/272/68 234/271/68 233/270/68 238/269/68